# xmcd
#
# Track frame offsets: 
#        150
#        17429
#        37365
#        59753
#        78141
#
# Disc length: 1309 seconds
#
# Revision: 0
# Processed by: cddbd v1.5.2PL0 Copyright (c) Steve Scherf et al.
# Submitted via: ExactAudioCopy v1.0b4
#
DISCID=3a051b05
DTITLE=IndianDigitalAudio.com / Dil Dhadakne Do
DYEAR=2015
DGENRE=Soundtrack
TTITLE0=Dil Dhadakne Do
TTITLE1=Pehli Baar
TTITLE2=Gallan Goodiyaan
TTITLE3=Girls Like To Swing
TTITLE4=Phir Bhi Yeh Zindagi
EXTD=
EXTT0=
EXTT1=
EXTT2=
EXTT3=
EXTT4=
PLAYORDER=
